<?xml version="1.0" standalone="no"?>
<!DOCTYPE svg PUBLIC "-//W3C//DTD SVG 20010904//EN"
 "http://www.w3.org/TR/2001/REC-SVG-20010904/DTD/svg10.dtd">
<svg version="1.0" xmlns="http://www.w3.org/2000/svg"
 width="300.000000pt" height="300.000000pt" viewBox="0 0 300.000000 300.000000"
 preserveAspectRatio="xMidYMid meet">
<metadata>
Created by potrace 1.15, written by Peter Selinger 2001-2017
</metadata>
<g transform="translate(0.000000,300.000000) scale(0.100000,-0.100000)"
fill="#000000" stroke="none">
<path d="M1735 2830 c-10 -23 -24 -39 -31 -36 -8 3 -10 -2 -6 -16 3 -13 -1
-24 -12 -30 -9 -5 -16 -16 -16 -23 0 -9 -10 -15 -25 -15 -21 0 -25 -5 -25 -30
0 -22 4 -28 15 -24 11 5 13 2 9 -10 -3 -9 -10 -16 -15 -16 -5 0 -9 -9 -9 -20
0 -11 -4 -20 -10 -20 -5 0 -10 -8 -10 -18 0 -27 -9 -32 -36 -22 -21 8 -24 7
-24 -14 0 -14 6 -26 13 -29 15 -5 -17 -44 -44 -52 -11 -4 -17 -11 -14 -16 4
-5 1 -9 -4 -9 -6 0 -11 -5 -11 -11 0 -5 5 -7 10 -4 6 3 10 -4 10 -15 0 -16 -5
-20 -15 -16 -8 3 -14 2 -14 -2 1 -4 -2 -17 -6 -29 -8 -25 -25 -31 -25 -10 0 6
-5 4 -11 -6 -6 -9 -8 -25 -5 -35 3 -9 1 -24 -4 -32 -8 -12 -10 -11 -10 8 0 13
-6 22 -15 22 -11 0 -15 -11 -15 -40 0 -30 -4 -40 -16 -40 -14 0 -16 -9 -11
-57 3 -32 17 -85 31 -118 104 -249 -46 -543 -310 -610 -32 -8 -83 -16 -112
-17 -52 -3 -53 -3 -50 -33 1 -18 -2 -29 -9 -28 -6 1 -9 -6 -6 -16 2 -9 -3 -23
-11 -30 -9 -8 -16 -20 -16 -27 0 -8 -11 -14 -26 -14 -21 0 -24 -3 -15 -13 8
-11 4 -27 -18 -67 -29 -52 -29 -53 -34 -24 -3 22 -4 19 -6 -13 -1 -30 -5 -43
-15 -43 -10 0 -16 -13 -18 -37 -3 -32 -7 -38 -28 -41 -30 -3 -55 -49 -46 -84
3 -13 3 -17 0 -10 -18 38 -54 -21 -40 -65 3 -10 1 -25 -4 -33 -8 -12 -10 -11
-10 8 0 13 -6 22 -15 22 -11 0 -15 -11 -15 -40 0 -29 -4 -40 -15 -40 -17 0
-30 -41 -22 -71 4 -14 -2 -28 -19 -44 -13 -12 -24 -27 -24 -34 0 -6 -9 -11
-20 -11 -16 0 -20 -7 -20 -34 0 -30 11 -45 95 -124 213 -202 472 -326 765
-367 61 -8 140 -15 175 -15 37 0 65 -4 65 -10 0 -5 -4 -10 -10 -10 -5 0 -10
-14 -10 -32 l0 -31 98 6 c337 21 673 177 921 426 279 280 424 611 438 999 10
258 -38 485 -149 708 -27 55 -34 62 -47 51 -14 -11 -14 -10 -2 6 12 15 12 20
2 26 -7 5 -12 11 -12 15 2 17 0 19 -9 10 -5 -5 -10 -23 -12 -40 -3 -47 -27
-37 -72 31 -141 217 -338 394 -561 504 -104 51 -257 104 -336 116 l-45 7 -19
-42z m404 -501 c227 -52 390 -290 353 -515 -33 -198 -187 -353 -385 -387 -83
-14 -183 1 -264 39 -79 38 -173 130 -211 207 -60 121 -62 285 -5 405 33 71
140 179 208 212 95 46 211 61 304 39z"/>
<path d="M2001 2058 c-30 -7 -56 -22 -85 -52 -82 -81 -82 -191 -1 -271 80 -81
190 -81 270 0 140 140 12 365 -184 323z"/>
<path d="M903 2053 c-53 -18 -106 -79 -123 -138 -35 -125 92 -264 219 -240 97
18 171 107 171 205 -1 69 -75 159 -147 179 -49 14 -68 13 -120 -6z"/>
</g>
</svg>
